<?xml version="1.0" standalone="no"?><!DOCTYPE svg PUBLIC "-//W3C//DTD SVG 1.1//EN" "http://www.w3.org/Graphics/SVG/1.1/DTD/svg11.dtd"><svg t="1536223330074" class="icon" style="" viewBox="0 0 1024 1024" version="1.1" xmlns="http://www.w3.org/2000/svg" p-id="7337" xmlns:xlink="http://www.w3.org/1999/xlink" width="81" height="81"><defs><style type="text/css"></style></defs><path d="M729.4288 266.56a29.952 29.952 0 0 1 6.784 42.24l-279.424 392.96a29.12 29.12 0 0 1-41.6 6.784 29.952 29.952 0 0 1-7.424-41.344l0.64-0.832 279.552-392.96a29.056 29.056 0 0 1 41.472-6.848z m146.688-123.392L696.9168 9.728a49.024 49.024 0 0 0-68.928 10.56l-14.72 20.032 258.048 193.28 14.656-20.096a50.56 50.56 0 0 0-9.6-70.208l-0.256-0.128zM177.3648 639.168l258.752 193.216 414.784-571.072-257.984-193.216L177.3648 639.168z m-49.28 314.624a17.92 17.92 0 0 0 15.424 20.032 17.536 17.536 0 0 0 9.536-1.408l227.328-100.48-224.832-167.808C147.1568 779.776 129.4288 941.44 128.0848 953.792z" fill="#ffffff" p-id="7338"></path></svg>