<?xml version="1.0" standalone="no"?><!DOCTYPE svg PUBLIC "-//W3C//DTD SVG 1.1//EN" "http://www.w3.org/Graphics/SVG/1.1/DTD/svg11.dtd"><svg t="1534818806668" class="icon" style="" viewBox="0 0 1223 1024" version="1.1" xmlns="http://www.w3.org/2000/svg" p-id="3009" xmlns:xlink="http://www.w3.org/1999/xlink" width="96.7412109375" height="81"><defs><style type="text/css"></style></defs><path d="M1209.742222 429.795556l-166.855111-130.730667v-144.497778a44.088889 44.088889 0 0 0-43.918222-44.259555h-83.712a44.088889 44.088889 0 0 0-43.889778 44.259555v19.911111L665.486222 17.493333a23.324444 23.324444 0 0 0-2.702222-1.706666A91.164444 91.164444 0 0 0 611.555556 0a91.392 91.392 0 0 0-53.930667 17.493333L13.340444 429.824a32.711111 32.711111 0 0 0-7.196444 45.425778c10.524444 14.506667 30.72 17.806222 45.169778 7.253333L595.086222 70.4a27.505778 27.505778 0 0 1 32.426667-0.170667c0.227556 0.142222 0.483556 0.227556 0.739555 0.398223l543.459556 411.875555c14.506667 10.524444 34.702222 7.281778 45.169778-7.253333a32.682667 32.682667 0 0 0-7.168-45.425778z m-177.493333 67.498666L655.132444 207.274667l-0.256-0.170667a74.183111 74.183111 0 0 0-86.528-0.142222c-0.113778 0.142222-0.256 0.199111-0.398222 0.312889L190.805333 497.294222a32.711111 32.711111 0 0 0-13.368889 26.339556v367.189333c0 62.805333 50.773333 113.834667 113.066667 113.834667h182.784v-273.749334c0-48.298667 38.798222-87.324444 86.698667-87.324444h89.941333a86.983111 86.983111 0 0 1 86.727111 87.324444v273.749334h195.84c62.378667 0 113.066667-51.029333 113.066667-113.834667v-367.217778c0-10.325333-4.949333-20.110222-13.283556-26.311111z" fill="#e4393c" p-id="3010"></path></svg>