<?xml version="1.0" standalone="no"?><!DOCTYPE svg PUBLIC "-//W3C//DTD SVG 1.1//EN" "http://www.w3.org/Graphics/SVG/1.1/DTD/svg11.dtd"><svg t="1534819941121" class="icon" style="" viewBox="0 0 1024 1024" version="1.1" xmlns="http://www.w3.org/2000/svg" p-id="2492" xmlns:xlink="http://www.w3.org/1999/xlink" width="81" height="81"><defs><style type="text/css"></style></defs><path d="M922.085928 741.679195c-3.261562 0-6.392661-0.52185-9.654223-1.56555-13.829023-5.348962-20.352147-20.873997-15.003185-34.703019 18.656135-48.140655 28.310358-98.890559 28.310358-150.684164 0-137.898841-68.362339-266.665308-182.777934-344.16002-12.263473-7.958211-15.525035-25.179259-6.914511-36.920882 7.958211-12.263473 25.179259-15.525035 36.920881-6.914511 129.288317 87.148936 206.26118 232.484138 206.26118 388.517263 0 58.838578-10.697923 115.981144-32.09377 170.51446-4.174799 9.523761-14.350873 15.916422-25.048796 15.916423zM68.730851 580.818958c-15.003185 0-26.744808-11.741623-26.744808-26.744808C41.986043 341.942158 184.711995 156.033125 389.407625 101.499809c5.870812-1.56555 11.741623-3.261562 17.612435-4.305262 14.481335-3.261562 28.832208 5.870812 32.09377 20.352147s-5.870812 28.832208-20.352147 32.09377c-5.348962 1.0437-10.697923 2.60925-15.525035 3.783412C222.154727 201.434068 95.475659 366.599567 95.475659 554.07415c0 15.003185-12.263473 26.744808-26.744808 26.744808zM510.085419 1022.825838c-119.112244 0-233.005988-44.879093-320.024462-126.157218-10.697923-10.176073-11.219773-26.744808-1.0437-37.964581 10.176073-10.697923 26.744808-11.219773 37.964582-1.0437 76.972863 72.145751 177.950822 111.675882 283.234042 111.675882 57.142566 0 112.719582-11.219773 165.165499-34.181169 13.307173-5.870812 29.354058 0.52185 35.224869 13.829022s-0.52185 29.354058-13.829023 35.22487c-58.969041 25.701108-121.982418 38.616894-186.691807 38.616894z m0 0" fill="#e4393c" p-id="2493"></path><path d="M507.476169 875.794624L488.167722 857.138489 258.945146 627.915913l-12.263473-13.307173c-68.362339-68.362339-68.362339-179.516372 0-247.356861 68.362339-68.362339 179.516372-68.362339 247.356861 0l12.785323 12.785323 12.785323-12.785323c33.13747-33.13747 76.972863-51.271754 123.939355-51.271754s90.801886 18.134285 123.939355 51.271754c68.362339 68.362339 68.362339 179.516372 0 247.356861l-12.785323 12.785323-18.656134 19.177984-228.570264 229.222577z m-0.52185-75.798701l172.60186-172.08001 18.656135-19.177985 32.09377-32.09377c47.618805-47.618805 47.618805-124.461205 0-172.08001s-124.461205-47.618805-172.080011 0L507.476169 455.314053l-50.749904-50.749905c-47.618805-47.618805-124.461205-47.618805-172.080011 0s-47.618805 124.461205 0 172.08001l51.271755 51.271755 171.03631 172.08001z m370.252516 113.763282c-61.969678 0-112.197732-50.228055-112.197732-112.197732s50.228055-112.197732 112.197732-112.197732c17.612435 0 35.746719 4.305262 51.271755 12.263473 37.442732 19.177984 60.925978 57.664416 60.925978 99.934259 0.130462 61.969678-50.097592 112.197732-112.197733 112.197732z m0-171.03631c-32.61562 0-58.838578 26.222958-58.838578 58.838578s26.222958 58.838578 58.838578 58.838578 58.838578-26.222958 58.838579-58.838578c0-21.917697-12.263473-42.269843-32.09377-52.315454-7.958211-4.305262-17.090585-6.523124-26.744809-6.523124zM510.085419 224.395464c-57.142566 0-105.283221-42.791693-111.675883-99.934259-0.52185-4.305262-0.52185-7.958211-0.52185-12.263473 0-61.969678 50.228055-112.197732 112.197733-112.197732s112.197732 50.228055 112.197732 112.197732c0.130462 61.969678-50.097592 112.197732-112.197732 112.197732z m0-170.905847c-32.61562 0-58.838578 26.222958-58.838579 58.838578 0 2.0874 0 4.305262 0.52185 6.392661 3.261562 29.875908 28.310358 52.315454 58.186266 52.315454 32.61562 0 58.838578-26.222958 58.838578-58.838578 0.130462-32.61562-26.092496-58.708116-58.708115-58.708115zM146.747414 913.759205c-61.969678 0-112.197732-50.228055-112.197732-112.197732s50.228055-112.197732 112.197732-112.197732 112.197732 50.228055 112.197732 112.197732c0 33.65932-15.003185 65.23124-41.095681 86.627086-19.830297 16.438272-44.879093 25.570646-71.102051 25.570646z m0-171.03631c-32.61562 0-58.838578 26.222958-58.838578 58.838578S114.131794 860.400051 146.747414 860.400051c13.829023 0 26.744808-4.827112 37.442731-13.307173 13.829023-11.219773 21.395847-27.788508 21.395847-45.400943 0-32.746082-26.222958-58.969041-58.838578-58.96904z m0 0" fill="#e4393c" p-id="2494"></path></svg>