<?xml version="1.0" standalone="no"?><!DOCTYPE svg PUBLIC "-//W3C//DTD SVG 1.1//EN" "http://www.w3.org/Graphics/SVG/1.1/DTD/svg11.dtd"><svg t="1534821222083" class="icon" style="" viewBox="0 0 1024 1024" version="1.1" xmlns="http://www.w3.org/2000/svg" p-id="14526" xmlns:xlink="http://www.w3.org/1999/xlink" width="81" height="81"><defs><style type="text/css"></style></defs><path d="M229.376 238.08m-138.24 0a138.24 138.24 0 1 0 276.48 0 138.24 138.24 0 1 0-276.48 0Z" p-id="14527" fill="#e4393c"></path><path d="M794.624 243.2m-138.24 0a138.24 138.24 0 1 0 276.48 0 138.24 138.24 0 1 0-276.48 0Z" p-id="14528" fill="#e4393c"></path><path d="M945.664 395.264h-301.568c-34.816 0-62.464 28.16-62.464 62.464v32.256h-138.24v-32.256c0-34.816-28.16-62.464-62.464-62.464H78.336c-34.816 0-62.464 28.16-62.464 62.464v403.968c0 34.816 28.16 62.464 62.464 62.464h301.568c34.816 0 62.464-28.16 62.464-62.464V829.44h138.24v32.256c0 34.816 28.16 62.464 62.464 62.464h301.568c34.816 0 62.464-28.16 62.464-62.464V457.728c1.024-34.816-27.136-62.464-61.44-62.464zM680.96 611.84c-4.096 55.808-46.08 123.904-168.96 209.92-122.368-86.016-164.352-154.624-168.96-209.92v-19.456c4.608-57.856 43.008-88.576 75.776-91.648 5.632-0.512 10.752-1.024 15.36-1.024 38.4 0 56.32 16.384 77.312 41.472 20.992-25.088 39.424-41.472 77.312-41.472 4.608 0 9.728 0.512 15.36 1.024 33.28 3.072 71.168 33.28 75.776 91.648v19.456z" p-id="14529" fill="#e4393c"></path></svg>