<?xml version="1.0" standalone="no"?><!DOCTYPE svg PUBLIC "-//W3C//DTD SVG 1.1//EN" "http://www.w3.org/Graphics/SVG/1.1/DTD/svg11.dtd"><svg t="1536204523349" class="icon" style="" viewBox="0 0 1024 1024" version="1.1" xmlns="http://www.w3.org/2000/svg" p-id="6417" xmlns:xlink="http://www.w3.org/1999/xlink" width="81" height="81"><defs><style type="text/css"></style></defs><path d="M512 128C299.936 128 128 299.936 128 512c0 212.064 171.936 384 384 384s384-171.936 384-384C896 299.936 724.064 128 512 128zM512 832c-176.448 0-320-143.552-320-320 0-176.448 143.552-320 320-320s320 143.552 320 320C832 688.448 688.448 832 512 832z" p-id="6418" fill="#e4393c"></path><path d="M672 481.472l-129.472 0L542.528 352c0-16.832-13.664-30.528-30.528-30.528S481.472 335.168 481.472 352l0 129.472L352 481.472c-16.832 0-30.528 13.664-30.528 30.528s13.664 30.528 30.528 30.528l129.472 0L481.472 672c0 16.832 13.664 30.496 30.528 30.496s30.528-13.664 30.528-30.496l0-129.472L672 542.528c16.832 0 30.496-13.664 30.496-30.528S688.832 481.472 672 481.472z" p-id="6419" fill="#e4393c"></path></svg>