<?xml version="1.0" standalone="no"?><!DOCTYPE svg PUBLIC "-//W3C//DTD SVG 1.1//EN" "http://www.w3.org/Graphics/SVG/1.1/DTD/svg11.dtd"><svg t="1534917860285" class="icon" style="" viewBox="0 0 1024 1024" version="1.1" xmlns="http://www.w3.org/2000/svg" p-id="8249" xmlns:xlink="http://www.w3.org/1999/xlink" width="81" height="81"><defs><style type="text/css"></style></defs><path d="M868.730919 431.158838 282.416882 431.158838c-4.740836-26.310677-7.207861-53.655254-7.275679-81.48607-0.428659-175.157558 107.681585-295.93946 270.219947-295.776954 146.063799 0.147151 225.039337 119.567583 239.919547 269.473954l0.112603 0c0.673058 14.285206 12.431098 25.668329 26.882649 25.668329s26.21087-11.383124 26.882649-25.668329l0.922576 0C824.806854 141.477792 706.587946 0 531.888477 0 344.436736 0 221.993942 162.872332 221.993942 363.790349c0 23.020883 1.626343 45.533774 4.754911 67.368488l-58.649446 0C108.569612 431.158838 60.309058 479.415553 60.309058 538.947907l0 377.263023c0 59.529795 48.260554 107.78907 107.78907 107.78907l700.632791 0c59.529795 0 107.78907-48.260554 107.78907-107.78907L976.519988 538.947907C976.519988 479.415553 928.260714 431.158838 868.730919 431.158838zM558.836384 743.681625l0 64.740236c0 14.882769-12.063859 26.947907-26.947907 26.947907l-26.947907 0c-14.882769 0-26.947907-12.063859-26.947907-26.947907l0-64.738956c-24.155869-13.979387-40.420581-40.080214-40.420581-69.996741 0-44.649586 36.195416-80.842442 80.842442-80.842442s80.842442 36.192856 80.842442 80.842442C599.256965 703.601412 582.992253 729.702238 558.836384 743.681625z" p-id="8250" fill="#e4393c"></path></svg>