<?xml version="1.0" standalone="no"?><!DOCTYPE svg PUBLIC "-//W3C//DTD SVG 1.1//EN" "http://www.w3.org/Graphics/SVG/1.1/DTD/svg11.dtd"><svg t="1534820201490" class="icon" style="" viewBox="0 0 1024 1024" version="1.1" xmlns="http://www.w3.org/2000/svg" p-id="5230" xmlns:xlink="http://www.w3.org/1999/xlink" width="81" height="81"><defs><style type="text/css"></style></defs><path d="M543.488123 133.578522c-20.50808-66.61426-87.972344-109.274427-156.932613-99.236388-55.930218 8.144032-101.498396 48.268189-117.062457 101.638397-36.992145-41.418162-95.344372-58.006227-149.280583-41.332161-67.164262 20.766081-109.658428 88.832347-98.840387 158.330618 6.284025 40.356158 29.474115 76.162298 63.640249 98.290384l203.766796 141.006551a81.456318 81.456318 0 0 0 46.304181 14.428056c5.984023 0 11.996047-0.662003 17.91407-2.004008a81.452318 81.452318 0 0 0 52.566205-38.926152l120.398471-210.684823c23.866093-35.91814 30.258118-80.166313 17.526068-121.510474z m-47.612186 102.116399a16.240063 16.240063 0 0 0-0.678003 1.092004l-120.708471 211.226825c-6.396025 11.192044-16.840066 18.926074-29.410115 21.778085-12.576049 2.852011-25.330099 0.382001-35.93014-6.952027L105.154411 321.673257c-0.160001-0.11-0.324001-0.220001-0.486002-0.326002-25.728101-16.580065-43.194169-43.50617-47.920187-73.872288-8.112032-52.072203 23.722093-103.070403 74.038289-118.624464a107.672421 107.672421 0 0 1 31.826124-4.814018c33.546131 0 65.942258 15.688061 86.506338 43.56417a29.340115 29.340115 0 0 0 30.078118 11.218044 29.336115 29.336115 0 0 0 22.314087-23.086091c8.626034-44.822175 44.880175-79.37031 90.206352-85.970335 51.638202-7.514029 102.200399 24.438095 117.562459 74.34629 9.606038 31.194122 4.720018 64.576252-13.404052 91.586358z" fill="" p-id="5231"></path><path d="M936.393658 143.490561c-42.464166-10.780042-86.902339 3.166012-115.534452 34.970136-16.340064-39.500154-53.508209-67.492264-97.074379-71.568279-57.010223-5.342021-110.212431 32.612127-123.758483 88.270344-7.860031 32.292126-1.598006 66.43826 17.174067 93.740367l105.696413 164.06464a67.992266 67.992266 0 0 0 45.536178 30.110118c3.794015 0.652003 7.61003 0.972004 11.414044 0.972004a68.016266 68.016266 0 0 0 41.554163-14.170056l46.672182-36.108141a423.501654 423.501654 0 0 1 11.810046 99.508389c0 232.718909-189.32874 422.045649-422.045649 422.045649S35.79414 765.992992 35.79414 533.276083c0-16.562065 0.968004-33.24213 2.878011-49.576194a17.89607 17.89607 0 0 0-15.698061-19.854077c-9.808038-1.152005-18.706073 5.878023-19.854078 15.698061A464.141813 464.141813 0 0 0 0 533.276083c0 252.454986 205.384802 457.839788 457.837788 457.839789 252.454986 0 457.839788-205.384802 457.839789-457.839789 0-41.914164-5.668022-83.338326-16.826066-123.320482l73.654288-56.986222c29.094114-19.578076 47.666186-50.834199 50.984199-85.860336 5.360021-56.510221-32.084125-109.656428-87.09634-123.618482z m51.464201 120.242469c-2.318009 24.456096-15.33606 46.250181-35.71814 59.798234a17.470068 17.470068 0 0 0-1.046004 0.750003l-151.590592 117.280458c-7.186028 5.558022-16.072063 7.76603-25.008098 6.234024-8.948035-1.536006-16.584065-6.586026-21.504084-14.218055l-105.844413-164.304642a17.336068 17.336068 0 0 0-0.326001-0.490002c-13.294052-19.222075-17.558069-42.362165-12.010047-65.162255 8.788034-36.106141 41.678163-61.44424 78.250305-61.44424 2.44601 0 4.918019 0.112 7.392029 0.346002 34.282134 3.210013 62.848246 27.742108 71.084278 61.044238a26.920105 26.920105 0 0 0 21.550084 20.076079 26.918105 26.918105 0 0 0 27.016106-11.720046c18.916074-28.664112 54.068211-42.226165 87.488341-33.748132 38.064149 9.670038 63.97425 46.450181 60.266236 85.558334z" fill="" p-id="5232"></path><path d="M736.802878 635.090481H380.639487a17.89807 17.89807 0 0 0-17.89807 17.89807c0 108.062422 87.914343 195.978766 195.978766 195.978765s195.980766-87.914343 195.980765-195.978765a17.89607 17.89607 0 0 0-17.89807-17.89807z m-178.082695 178.080695c-82.278321 0-150.264587-62.350244-159.190622-142.284555h318.383243c-8.924035 79.934312-76.9143 142.284556-159.192621 142.284555z" fill="" p-id="5233"></path><path d="M583.77028 111.230434m-17.89807 0a17.89807 17.89807 0 1 0 35.79614 0 17.89807 17.89807 0 1 0-35.79614 0Z" fill="" p-id="5234"></path><path d="M32.778128 421.973648m-17.89807 0a17.89807 17.89807 0 1 0 35.79614 0 17.89807 17.89807 0 1 0-35.79614 0Z" fill="" p-id="5235"></path></svg>